<svg width="50" height="51" viewBox="0 0 50 51" fill="none" xmlns="http://www.w3.org/2000/svg">
<path d="M25 0.015625C11.2011 0.015625 0 11.2144 0 25.0105C0 38.8065 11.2011 50.0053 25 50.0053C38.7989 50.0053 50 38.8065 50 25.0105C50 11.2144 38.7989 0.015625 25 0.015625ZM25 1.40423C38.0483 1.40423 48.6111 11.9649 48.6111 25.0105C48.6111 38.0561 38.0483 48.6167 25 48.6167C11.9517 48.6167 1.38889 38.0561 1.38889 25.0105C1.38889 11.9649 11.9517 1.40423 25 1.40423ZM25 3.48713C13.1144 3.48713 3.47222 13.1274 3.47222 25.0105C3.47222 36.8936 13.1144 46.5338 25 46.5338C36.8856 46.5338 46.5278 36.8936 46.5278 25.0105C46.5278 18.6954 43.8049 13.0107 39.4694 9.07409C39.4359 9.0419 39.3963 9.01675 39.353 9.00013C39.3096 8.98351 39.2633 8.97576 39.2169 8.97733C39.1705 8.9789 39.1248 8.98977 39.0827 9.0093C39.0406 9.02882 39.0028 9.05659 38.9715 9.09098C38.9403 9.12536 38.9163 9.16566 38.901 9.20948C38.8856 9.25331 38.8792 9.29977 38.8821 9.34612C38.885 9.39246 38.8972 9.43775 38.9179 9.47931C38.9387 9.52086 38.9675 9.55783 39.0028 9.58804C43.1993 13.3984 45.8333 18.8948 45.8333 25.0105C45.8333 36.5184 36.5103 45.8395 25 45.8395C13.4897 45.8395 4.16667 36.5184 4.16667 25.0105C4.16667 13.5026 13.4897 4.18143 25 4.18143C27.5213 4.18143 29.9362 4.62991 32.1723 5.44935C32.2151 5.46503 32.2607 5.47211 32.3062 5.47021C32.3518 5.4683 32.3966 5.45743 32.4379 5.43823C32.4793 5.41903 32.5165 5.39187 32.5474 5.35829C32.5783 5.32472 32.6022 5.2854 32.6179 5.24256C32.6336 5.19973 32.6407 5.15423 32.6387 5.10866C32.6368 5.0631 32.626 5.01835 32.6068 4.97698C32.5875 4.93562 32.5604 4.89844 32.5268 4.86757C32.4932 4.8367 32.4539 4.81275 32.411 4.79708C30.1 3.9502 27.6037 3.48713 25 3.48713ZM34.3614 5.66767C34.2834 5.66959 34.2083 5.69772 34.1483 5.74754C34.0882 5.79735 34.0467 5.86594 34.0304 5.94225C34.0141 6.01855 34.024 6.09812 34.0584 6.16812C34.0929 6.23811 34.1499 6.29446 34.2204 6.32807C34.6855 6.55819 35.142 6.80544 35.5876 7.06848C35.6269 7.09278 35.6706 7.10899 35.7163 7.11616C35.762 7.12332 35.8086 7.12131 35.8534 7.11023C35.8983 7.09914 35.9405 7.07922 35.9776 7.05162C36.0147 7.02402 36.0458 6.9893 36.0693 6.9495C36.0928 6.9097 36.1081 6.86561 36.1143 6.81982C36.1205 6.77403 36.1175 6.72747 36.1055 6.68285C36.0934 6.63824 36.0726 6.59647 36.0443 6.56C36.0159 6.52353 35.9805 6.49309 35.9402 6.47046C35.4802 6.19889 35.0104 5.94349 34.5296 5.70564C34.4776 5.67905 34.4198 5.66599 34.3614 5.66767ZM37.1582 7.31393C37.1464 7.31378 37.1347 7.31423 37.1229 7.31528C37.0511 7.32063 36.9827 7.34819 36.9272 7.39414C36.8717 7.44009 36.8319 7.50216 36.8133 7.57174C36.7947 7.64132 36.7981 7.71497 36.8232 7.78249C36.8483 7.85001 36.8938 7.90805 36.9534 7.94856C37.1844 8.11053 37.412 8.27781 37.6356 8.44895C37.6719 8.47673 37.7132 8.49711 37.7574 8.50891C37.8015 8.52071 37.8475 8.5237 37.8928 8.51772C37.9381 8.51174 37.9817 8.4969 38.0213 8.47405C38.0608 8.45121 38.0955 8.42079 38.1233 8.38455C38.151 8.34831 38.1714 8.30695 38.1832 8.26284C38.195 8.21872 38.198 8.17272 38.192 8.12745C38.186 8.08218 38.1712 8.03853 38.1483 7.99899C38.1255 7.95946 38.0951 7.92481 38.0588 7.89703C37.8269 7.71963 37.5906 7.54751 37.3522 7.38037C37.2957 7.33921 37.2281 7.31605 37.1582 7.31393ZM34.9826 13.9017C34.3584 13.9017 33.751 14.1885 33.7497 14.1891L10.9375 23.4225C10.9046 23.4334 10.6528 23.5189 10.376 23.7032C10.0806 23.8999 9.72222 24.2406 9.72222 24.7515C9.72222 25.2974 10.0561 25.6805 10.3502 25.8919C10.6444 26.1033 10.9375 26.1889 10.9375 26.1889C10.9402 26.1894 10.9429 26.1898 10.9456 26.1903L16.2245 27.6222C16.2792 27.7752 16.8752 29.4417 17.532 31.2768C17.8751 32.2356 18.2203 33.1975 18.4828 33.9293C18.6141 34.2952 18.7246 34.6032 18.8043 34.8243C18.8441 34.9348 18.8761 35.0238 18.8992 35.0873C18.9223 35.1509 18.9267 35.1672 18.944 35.2094C19.0838 35.5514 19.2102 35.7494 19.3319 35.8779C19.3927 35.9422 19.4543 35.9885 19.5136 36.0203C19.5282 36.0281 19.5417 36.0319 19.5557 36.0379C19.5579 36.0393 19.5602 36.0407 19.5624 36.042C19.5647 36.0431 19.5669 36.0437 19.5692 36.0447C19.579 36.0486 19.5894 36.054 19.5991 36.0569C19.6108 36.0605 19.6175 36.0609 19.6316 36.0637C19.7434 36.1038 19.8564 36.1219 19.9599 36.1152C20.2963 36.1015 20.5322 35.9159 20.5322 35.9159C20.5397 35.9099 20.547 35.9035 20.5539 35.8969L23.9936 32.7197L29.1938 37.1187C29.1938 37.1187 29.3216 37.2334 29.518 37.3262C29.7143 37.419 30.0012 37.5079 30.3657 37.5079C31.0415 37.5079 31.4982 37.2056 31.7396 36.899C31.9811 36.5925 32.038 36.2685 32.038 36.2685V36.2739C32.038 36.2739 33.0422 31.0695 34.0508 25.8417C34.5551 23.2278 35.0604 20.6083 35.4411 18.6302C35.6314 17.6412 35.7911 16.812 35.9036 16.2246C35.9598 15.9309 36.0042 15.6975 36.0352 15.5343C36.0506 15.4528 36.0633 15.3887 36.0718 15.3431C36.0803 15.2976 36.0812 15.3006 36.0881 15.2509C36.1014 15.1544 36.1111 15.0501 36.1111 14.9431C36.1111 14.6336 35.974 14.35 35.7598 14.1688C35.5456 13.9876 35.2691 13.9017 34.9826 13.9017ZM34.9826 14.596C35.1302 14.596 35.2443 14.6402 35.3122 14.6977C35.3802 14.7551 35.4167 14.8187 35.4167 14.9431C35.4167 15.0042 35.4106 15.0818 35.4004 15.156C35.4056 15.118 35.3964 15.1728 35.3882 15.217C35.3799 15.2612 35.3683 15.3243 35.3529 15.4055C35.3221 15.5679 35.2775 15.8009 35.2214 16.0944C35.109 16.6814 34.9505 17.5098 34.7602 18.4987C34.3796 20.4766 33.8742 23.0964 33.37 25.7102C32.3614 30.9379 31.3558 36.1424 31.3558 36.1424C31.3553 36.1442 31.3549 36.146 31.3544 36.1478C31.3544 36.1478 31.3281 36.2994 31.1944 36.4692C31.0607 36.6389 30.8517 36.8136 30.3657 36.8136C30.112 36.8136 29.9315 36.7548 29.815 36.6997C29.6985 36.6446 29.6672 36.6116 29.6672 36.6116C29.6632 36.6074 29.6591 36.6033 29.6549 36.5993L21.2633 29.499L31.6257 19.6459L31.5986 19.669C31.8267 19.4934 31.9444 19.2256 31.9444 18.9598V18.9584C31.9433 18.7728 31.8846 18.5828 31.764 18.4228C31.5954 18.1961 31.333 18.069 31.0682 18.0675H31.0669C30.8756 18.0666 30.6833 18.131 30.5244 18.2532L30.5528 18.2329L16.4903 26.9347L16.6653 27.0337C16.6397 27.0195 16.6123 27.0085 16.5839 27.0012L11.1301 25.5217L11.1274 25.5204C11.1211 25.5184 10.9417 25.4628 10.7558 25.3292C10.5666 25.1932 10.4167 25.0241 10.4167 24.7515C10.4167 24.5785 10.5572 24.4167 10.7612 24.2809C10.9651 24.1452 11.1749 24.0748 11.1749 24.0748C11.1826 24.0724 11.1903 24.0696 11.1979 24.0667L34.0196 14.8292C34.0228 14.8279 34.026 14.8265 34.0291 14.8251C34.0291 14.8251 34.5937 14.596 34.9826 14.596ZM31.0642 18.7618C31.1171 18.762 31.1671 18.7828 31.208 18.8377L31.2093 18.8391C31.2358 18.874 31.2495 18.9163 31.25 18.9611C31.2496 19.0225 31.2234 19.0818 31.174 19.1198C31.1646 19.127 31.1556 19.1347 31.1469 19.1428L20.5037 29.2631C20.4488 29.3156 20.4126 29.3847 20.4007 29.4597H20.3979L19.519 34.7605C19.5001 34.7082 19.4827 34.662 19.4566 34.5897C19.3772 34.3693 19.2664 34.0604 19.1352 33.6947C18.8728 32.9633 18.5288 32.0009 18.1858 31.0422C17.5469 29.257 16.9977 27.7234 16.9135 27.488L30.9191 18.8228C30.9289 18.8165 30.9384 18.8097 30.9475 18.8024C30.9868 18.7722 31.0268 18.7615 31.0642 18.7618ZM20.9839 30.173L23.4592 32.2681L20.1267 35.3464L20.9839 30.173Z" fill="#272727"/>
</svg>
