<svg width="48" height="49" viewBox="0 0 48 49" fill="none" xmlns="http://www.w3.org/2000/svg">
<path d="M24 0.015625C10.7531 0.015625 0 10.7665 0 24.0107C0 28.2139 1.10195 32.1583 3.00268 35.5945L0.0495536 46.2677C-0.225072 47.2612 0.744301 48.2309 1.73839 47.9549L12.4152 45.0023C15.8524 46.903 19.7963 48.0057 24 48.0057C37.2469 48.0057 48 37.2549 48 24.0107C48 10.7665 37.2469 0.015625 24 0.015625ZM24 1.38677C36.5058 1.38677 46.6286 11.5075 46.6286 24.0107C46.6286 36.5139 36.5058 46.6346 24 46.6346C19.9302 46.6346 16.1193 45.5561 12.8196 43.6767C12.7411 43.6322 12.6545 43.6035 12.5649 43.5925C12.4753 43.5815 12.3843 43.5883 12.2973 43.6125L1.37143 46.6333L4.3942 35.711C4.4182 35.6239 4.42476 35.5329 4.4135 35.4433C4.40224 35.3537 4.37337 35.2672 4.32857 35.1887C2.44945 31.8905 1.37143 28.0797 1.37143 24.0107C1.37143 11.5075 11.4942 1.38677 24 1.38677ZM24 4.81464C13.4001 4.81464 4.8 13.413 4.8 24.0107C4.8 28.0429 6.05911 31.7783 8.18437 34.8674L6.45134 41.1339C6.43517 41.1924 6.4348 41.2541 6.45027 41.3127C6.46573 41.3714 6.49648 41.4249 6.53937 41.4677C6.58226 41.5106 6.63575 41.5413 6.6944 41.5568C6.75305 41.5723 6.81475 41.5719 6.87321 41.5557L13.1411 39.8231C16.2311 41.9485 19.967 43.2067 24 43.2067C34.5999 43.2067 43.2 34.6084 43.2 24.0107C43.2 18.732 41.0666 13.9475 37.6152 10.4773C37.5511 10.4127 37.4639 10.3762 37.3729 10.3758C37.2818 10.3754 37.1943 10.4112 37.1297 10.4753C37.065 10.5394 37.0285 10.6266 37.0281 10.7176C37.0278 10.8086 37.0636 10.8961 37.1277 10.9607C40.4566 14.3078 42.5143 18.9166 42.5143 24.0107C42.5143 34.2379 34.2293 42.5212 24 42.5212C20.0487 42.5212 16.3926 41.2814 13.3862 39.1736C13.3448 39.1447 13.2975 39.1252 13.2477 39.1167C13.198 39.1081 13.1469 39.1106 13.0982 39.1241L7.27366 40.7349L8.88482 34.9116C8.89828 34.8629 8.90082 34.8119 8.89225 34.7621C8.88368 34.7123 8.86423 34.6651 8.83527 34.6237C6.72705 31.6178 5.48571 27.9618 5.48571 24.0107C5.48571 13.7835 13.7707 5.50021 24 5.50021C25.7511 5.50021 27.4429 5.7487 29.0491 6.20319C29.0925 6.2155 29.1378 6.21915 29.1826 6.21394C29.2273 6.20872 29.2706 6.19474 29.31 6.1728C29.3494 6.15085 29.384 6.12137 29.412 6.08603C29.44 6.0507 29.4607 6.0102 29.473 5.96686C29.4853 5.92351 29.489 5.87817 29.4837 5.83341C29.4785 5.78865 29.4645 5.74536 29.4426 5.70601C29.4206 5.66666 29.3912 5.63201 29.3558 5.60405C29.3205 5.57609 29.28 5.55537 29.2366 5.54306C27.5719 5.07202 25.816 4.81464 24 4.81464ZM31.1973 6.23934C31.118 6.23963 31.0412 6.26742 30.98 6.31799C30.9189 6.36855 30.8771 6.43876 30.862 6.51664C30.8468 6.59452 30.8591 6.67524 30.8968 6.74506C30.9345 6.81487 30.9953 6.86944 31.0688 6.89948C31.7643 7.18734 32.4374 7.5178 33.0884 7.88499C33.1276 7.9099 33.1715 7.92658 33.2174 7.934C33.2633 7.94142 33.3102 7.93944 33.3553 7.92817C33.4004 7.9169 33.4428 7.89658 33.4798 7.86845C33.5168 7.84031 33.5477 7.80495 33.5706 7.76451C33.5935 7.72407 33.6079 7.67939 33.613 7.6332C33.6181 7.587 33.6138 7.54025 33.6002 7.49579C33.5867 7.45132 33.5643 7.41008 33.5343 7.37455C33.5043 7.33902 33.4674 7.30996 33.4259 7.28913C32.7521 6.90904 32.0537 6.56511 31.3313 6.26612C31.2889 6.24831 31.2433 6.2392 31.1973 6.23934ZM34.6299 8.09253C34.556 8.09169 34.4838 8.11475 34.424 8.15827C34.3643 8.2018 34.3202 8.26346 34.2984 8.33407C34.2766 8.40468 34.2781 8.48045 34.3029 8.5501C34.3276 8.61974 34.3742 8.67952 34.4357 8.72053C34.9002 9.03799 35.35 9.37518 35.7817 9.73148C35.8518 9.78937 35.9421 9.81702 36.0327 9.80836C36.1232 9.7997 36.2066 9.75542 36.2645 9.68529C36.3224 9.61515 36.3501 9.52489 36.3414 9.43436C36.3327 9.34384 36.2885 9.26046 36.2183 9.20257C35.7695 8.83217 35.3018 8.48382 34.8214 8.15547C34.7653 8.11578 34.6986 8.09385 34.6299 8.09253ZM16.1183 13.0469C15.6653 13.0469 14.9652 13.2198 14.3853 13.8637C13.9002 14.394 12.3415 15.9029 12.3415 18.7979C12.3415 21.7345 14.4158 24.4656 14.6826 24.8302L14.6839 24.8328L14.6853 24.8342C14.6952 24.8473 14.7948 24.9971 14.9317 25.1997C15.0686 25.4024 15.2559 25.6746 15.4902 25.9978C15.9587 26.6441 16.6156 27.4943 17.4442 28.4053C19.1014 30.2273 21.4427 32.2968 24.3429 33.4561V33.4574C26.7092 34.4011 28.1482 34.7865 29.1455 34.9223C30.1428 35.0581 30.7027 34.9349 31.1799 34.8915H31.1813C31.8084 34.8318 32.6366 34.4698 33.4259 33.9528C34.2152 33.4359 34.9531 32.7728 35.2313 31.9805C35.4729 31.2947 35.5951 30.6587 35.6384 30.1527C35.66 29.8997 35.6616 29.679 35.6478 29.4953C35.6339 29.3115 35.6249 29.1774 35.5312 29.0159H35.5299C35.4084 28.8075 35.2248 28.6877 35.025 28.5767C34.8255 28.4659 34.5942 28.361 34.3219 28.2232H34.3205C34.0374 28.0787 33.2178 27.6684 32.3987 27.2685C31.5791 26.8683 30.7995 26.4915 30.4795 26.3727H30.4781C30.2157 26.2769 29.952 26.1798 29.6438 26.216C29.3355 26.2522 29.0421 26.4572 28.8228 26.7891C28.4874 27.2968 27.4035 28.5958 27.0857 28.9623V28.9637H27.0844C26.9535 29.115 26.8778 29.1532 26.7871 29.1645C26.6963 29.1758 26.5408 29.1481 26.2915 29.0239L26.2942 29.0266C25.9702 28.8612 25.4187 28.6583 24.6549 28.2446C23.8911 27.831 22.9357 27.2181 21.8946 26.2776C20.2871 24.8256 19.1794 23.0085 18.8625 22.4574V22.4561C18.7353 22.2369 18.7491 22.1555 18.7821 22.0651C18.8149 21.9755 18.9141 21.8578 19.05 21.7196L19.0527 21.717C19.3376 21.433 19.6404 21.0261 19.9085 20.71L19.9098 20.7087V20.7073C20.2113 20.3458 20.3258 20.0691 20.5085 19.7031L20.5098 19.7018V19.7004C20.7469 19.2131 20.6218 18.7359 20.4643 18.4123C20.4473 18.3766 20.3468 18.1333 20.2192 17.8164C20.0913 17.4987 19.9266 17.0888 19.7518 16.6528C19.4021 15.7809 19.0097 14.8078 18.7567 14.2386C18.5305 13.7272 18.2728 13.4171 17.9813 13.2464C17.6906 13.0762 17.4022 13.0671 17.2018 13.0603H17.1991C16.8631 13.0462 16.489 13.0469 16.1183 13.0469ZM16.1183 13.7324C16.49 13.7324 16.8575 13.7326 17.1723 13.7458H17.1737H17.175C17.3736 13.7527 17.5018 13.7606 17.6344 13.8382C17.7669 13.9158 17.9392 14.0845 18.1299 14.5158V14.5171C18.372 15.0619 18.7665 16.0381 19.1156 16.9086C19.2902 17.3438 19.4544 17.7528 19.583 18.0722C19.7117 18.3916 19.7955 18.6019 19.8469 18.7095V18.7109L19.8482 18.7122C19.9663 18.9549 20.0229 19.135 19.8938 19.4005C19.702 19.7849 19.6312 19.9711 19.3835 20.2682L19.3862 20.2668C19.0968 20.608 18.7856 21.0158 18.5665 21.2336L18.5652 21.2349L18.5638 21.2363C18.4225 21.3797 18.238 21.5568 18.1379 21.8308C18.0379 22.1048 18.0707 22.458 18.2692 22.8002C18.6043 23.3827 19.7344 25.2501 21.4353 26.7865C22.5209 27.7671 23.5255 28.4126 24.3281 28.8472C25.131 29.282 25.7528 29.5195 25.9835 29.6372H25.9848L25.9862 29.6385C26.2958 29.7928 26.5806 29.8809 26.8714 29.8448C27.1619 29.8086 27.408 29.6369 27.6027 29.4123C27.9363 29.0274 28.9895 27.782 29.396 27.1667C29.5477 26.9371 29.6252 26.9077 29.7228 26.8963C29.8203 26.8848 29.996 26.9268 30.2424 27.0168C30.437 27.0891 31.2822 27.4864 32.0973 27.8844C32.9132 28.2828 33.7378 28.695 34.0098 28.8338H34.0112C34.2979 28.9789 34.5315 29.0864 34.6915 29.1752C34.8515 29.2641 34.9216 29.332 34.9379 29.36C34.9129 29.3168 34.9545 29.4121 34.9647 29.5475C34.975 29.6829 34.9731 29.8709 34.954 30.0938C34.9159 30.5395 34.8056 31.1251 34.5844 31.7528C34.3997 32.2789 33.7698 32.9089 33.0509 33.3797C32.332 33.8506 31.5122 34.171 31.117 34.2086C30.5772 34.2578 30.1492 34.3662 29.2379 34.2421C28.326 34.1179 26.9343 33.752 24.5973 32.82C21.8411 31.7183 19.5662 29.7196 17.9518 27.9447C17.1446 27.0572 16.5019 26.2269 16.0446 25.5961C15.816 25.2807 15.6338 25.0155 15.4996 24.8168C15.3653 24.6181 15.2931 24.5015 15.233 24.4218C14.9468 24.0306 13.0272 21.4022 13.0272 18.7979C13.0272 16.1398 14.3494 14.9183 14.8915 14.3256V14.3243H14.8929C15.3301 13.8377 15.8382 13.7324 16.1183 13.7324Z" fill="#272727"/>
</svg>
