<svg width="21" height="21" viewBox="0 0 21 21" fill="none" xmlns="http://www.w3.org/2000/svg">
<path d="M16.033 14.618L20.313 18.9L18.9 20.314L14.618 16.033C13.0241 17.3095 11.0421 18.0035 9 18C7.32335 18.0007 5.67984 17.533 4.25482 16.6496C2.82981 15.7661 1.67997 14.5021 0.935001 13H7L5.696 15.173C6.71203 15.7176 7.84723 16.0017 9 16C10.8204 16.0029 12.5699 15.2941 13.875 14.025L14.025 13.875C15.2941 12.5699 16.0029 10.8204 16 9C16 8.305 15.899 7.634 15.71 7H17.777C17.923 7.643 18 8.313 18 9C18.0035 11.0421 17.3095 13.0241 16.033 14.618ZM17.065 5H11L12.304 2.827C11.288 2.28243 10.1528 1.99828 9 2C7.90954 1.99951 6.83405 2.25383 5.8593 2.74267C4.88455 3.23151 4.0375 3.94135 3.38572 4.81558C2.73393 5.68981 2.29543 6.70424 2.10519 7.77798C1.91496 8.85172 1.97824 9.95506 2.29 11H0.223001C0.0744486 10.3437 -0.000348357 9.67289 1.21968e-06 9C1.21968e-06 4.027 4.027 1.17761e-06 9 1.17761e-06C10.6767 -0.000856525 12.3202 0.466828 13.7453 1.3503C15.1703 2.23377 16.3201 3.49787 17.065 5Z" fill="white"/>
</svg>
