<svg width="56" height="58" viewBox="0 0 56 58" fill="none" xmlns="http://www.w3.org/2000/svg">
<path fill-rule="evenodd" clip-rule="evenodd" d="M36.3932 20.0653C34.0902 15.7301 29.4824 14.7431 27.4664 14.7914V12.7109C34.9506 12.9275 37.9583 18.6739 38.2516 19.2343L38.256 19.2427C38.4689 19.6492 38.1673 20.1378 37.9899 20.3314C38.5318 21.0668 38.9737 23.7344 39.1269 24.9762H39.9011C40.2881 24.9762 40.4172 25.4762 40.4333 25.7262C41.2074 25.7068 41.3042 26.3632 41.2558 26.6938C41.53 27.097 42.0638 28.3147 42.0058 29.9598C41.9477 31.6048 41.4816 32.7741 41.2558 33.1531C41.2365 33.9659 40.7639 34.1046 40.5301 34.0724C40.5107 34.4788 40.1188 34.7094 39.9253 34.7739H38.2802C38.435 35.4707 38.2963 36.3383 38.2076 36.6851L37.8206 35.79C37.8399 37.4157 37.0706 38.8382 36.6836 39.3462V38.6204C36.3933 40.0526 35.4336 40.959 34.9901 41.2332L35.2804 39.8784C34.7192 41.2912 33.3854 42.2734 32.7887 42.5879C33.079 42.0396 33.587 41.0542 33.2967 41.4993C33.0064 41.9444 31.4823 43.104 30.7565 43.6282L31.1194 42.854L28.5551 44.4991L28.7486 44.0152L27.4664 44.4991V40.701C29.2566 40.7251 32.8129 40.58 32.7887 39.83C32.7693 39.2301 30.0872 38.1285 28.7486 37.6528C29.4179 37.6689 31.0662 37.7834 32.3048 38.1124C33.8531 38.5237 34.3127 38.306 34.4337 36.1771C34.5305 34.474 33.0548 31.9193 32.3048 30.8549C35.7796 30.9488 36.11 27.7843 36.2149 26.7793L36.2239 26.6938C36.3013 25.9778 36.8206 25.6375 37.0706 25.5568C37.2642 24.9762 37.9415 24.9278 38.256 24.9762C38.4495 23.5247 37.7077 21.4039 37.3125 20.5249C36.5964 20.4475 36.4013 20.1862 36.3932 20.0653ZM32.3048 18.7347C34.2595 20.1088 35.5062 22.8715 35.8852 24.0811C35.6336 23.7328 33.9902 23.6941 33.1999 23.7182C33.1515 23.436 32.5951 22.978 30.7565 23.4038C28.9179 23.8295 27.7971 23.7908 27.4664 23.7182V16.1704L28.7244 16.8236L28.4583 16.1704C28.4583 16.1704 30.2162 17.5574 30.7565 18.1299L30.4178 17.2832C30.4178 17.2832 32.1355 19.0492 32.6193 19.6782L32.3048 18.7347ZM27.4656 14.7915C25.4496 14.7431 20.8419 15.7301 18.5388 20.0653C18.5307 20.1863 18.3356 20.4476 17.6195 20.525C17.2244 21.4039 16.4825 23.5248 16.676 24.9763C16.9905 24.9279 17.6679 24.9763 17.8614 25.5569C18.1114 25.6375 18.6307 25.9778 18.7081 26.6939L18.7171 26.7794C18.8221 27.7844 19.1524 30.9488 22.6272 30.8549C21.8773 31.9193 20.4015 34.474 20.4983 36.1771C20.6193 38.306 21.0789 38.5237 22.6272 38.1125C23.8658 37.7835 25.8968 37.6448 26.5661 37.6286C25.2275 38.1044 22.1627 39.2301 22.1434 39.8301C22.1192 40.58 25.6754 40.7252 27.4656 40.701V44.4991L26.1834 44.0153L26.3769 44.4991L23.8126 42.8541L24.1755 43.6282C23.4497 43.1041 21.9256 41.9445 21.6353 41.4993C21.345 41.0542 21.8531 42.0396 22.1434 42.588C21.5466 42.2735 20.2128 41.2913 19.6516 39.8785L19.9419 41.2332C19.4984 40.959 18.5388 40.0527 18.2485 38.6205V39.3463C17.8614 38.8382 17.0921 37.4157 17.1114 35.79L16.7244 36.6851C16.6357 36.3384 16.497 35.4707 16.6518 34.774H15.0068C14.8132 34.7095 14.4213 34.4788 14.402 34.0724C14.1681 34.1047 13.6956 33.966 13.6762 33.1531C13.4504 32.7741 12.9843 31.6049 12.9263 29.9598C12.8682 28.3148 13.402 27.0971 13.6762 26.6939C13.6278 26.3633 13.7246 25.7069 14.4987 25.7262C14.5149 25.4762 14.6439 24.9763 15.031 24.9763H15.8051C15.9583 23.7344 16.4002 21.0669 16.9421 20.3314C16.7647 20.1379 16.4631 19.6492 16.676 19.2428L16.6804 19.2344C16.9738 18.6739 19.9814 12.9276 27.4656 12.711V14.7915ZM19.0468 24.0812C19.4258 22.8716 20.6725 20.1089 22.6272 18.7348L22.3127 19.6783C22.7966 19.0493 24.5142 17.2833 24.5142 17.2833L24.1755 18.13C24.7158 17.5574 26.4737 16.1704 26.4737 16.1704L26.2076 16.8236L27.4656 16.1704V23.7183C27.135 23.7909 26.0141 23.8296 24.1755 23.4038C22.3369 22.978 21.7805 23.4361 21.7321 23.7183C20.9418 23.6941 19.2984 23.7328 19.0468 24.0812ZM25.0736 30.365C25.568 30.4281 26.032 30.4942 26.4197 30.5495L26.4198 30.5496C26.9236 30.6214 27.2986 30.6749 27.4444 30.6795V30.6796C27.5984 30.6737 27.9967 30.6177 28.5233 30.5437L28.5234 30.5437C28.9082 30.4896 29.3616 30.4258 29.8382 30.365C31.448 30.1595 32.451 31.7439 31.3139 32.8083C31.2978 32.1632 31.0236 30.8536 30.056 30.7762C29.6866 30.7467 28.9569 30.8707 28.3538 30.9733C27.9299 31.0453 27.5686 31.1067 27.4388 31.0968V31.0966C27.3777 31.0946 27.1796 31.061 26.915 31.0161L26.915 31.0161C26.2899 30.9101 25.2935 30.7412 24.8559 30.7762C23.8882 30.8536 23.614 32.1632 23.5979 32.8083C22.4609 31.7439 23.4638 30.1595 25.0736 30.365ZM27.1783 32.01L27.0815 33.5099C27.0407 32.837 26.5875 32.8 25.9391 32.7471L25.939 32.7471C25.8181 32.7372 25.6905 32.7268 25.5574 32.7116C25.0736 32.7116 24.3962 32.3003 24.5172 31.8165C24.7662 30.8203 26.6219 31.5262 27.1783 32.01ZM27.7335 32.01L27.8303 33.5099C27.8711 32.837 28.3243 32.8 28.9727 32.7471L28.9728 32.7471C29.0937 32.7372 29.2214 32.7268 29.3544 32.7116C29.8382 32.7116 30.5156 32.3003 30.3946 31.8165C30.1456 30.8203 28.29 31.5262 27.7335 32.01ZM25.1926 24.6134C26.2958 25.0005 27.1683 25.1618 27.4666 25.194V26.0891C27.4666 26.0891 27.2199 26.1133 26.9102 26.6939C26.6851 27.1333 26.5372 27.5614 26.3993 27.9608C25.9296 29.3206 25.5751 30.3469 22.6767 30.3469C19.6787 30.3469 19.3628 28.2932 19.0243 26.0932L19.0237 26.0891C18.6124 26.1133 18.1195 24.8854 18.9027 24.6134C20.6445 24.0087 23.8137 24.1296 25.1926 24.6134ZM20.425 25.7747C20.1734 26.0457 20.2073 26.7262 20.2557 27.0327C20.604 26.2779 21.8201 25.7505 22.3845 25.5812C21.8362 25.5328 20.6766 25.5038 20.425 25.7747ZM27.4699 25.1938C27.7683 25.1615 28.6408 25.0002 29.744 24.6132C31.1229 24.1293 34.2921 24.0084 36.0339 24.6132C36.8171 24.8851 36.3242 26.1131 35.9129 26.0889L35.9123 26.093C35.5738 28.2929 35.2579 30.3466 32.2599 30.3466C29.3614 30.3466 29.007 29.3204 28.5373 27.9605C28.3994 27.5612 28.2515 27.133 28.0263 26.6937C27.7167 26.1131 27.4699 26.0889 27.4699 26.0889V25.1938ZM29.5862 27.0399C29.5378 26.7335 29.5039 26.0529 29.7555 25.7819C30.0071 25.511 31.1667 25.54 31.7151 25.5884C31.1506 25.7577 29.9345 26.2851 29.5862 27.0399ZM23.0832 35.7841C25.1471 35.4299 29.0915 34.9034 32.8621 35.9992C32.9229 36.0168 33.0364 36.0727 33.0876 36.1099C33.4525 36.3749 33.0046 36.617 32.5647 36.5175C30.7919 36.1164 27.0039 35.6992 23.5723 36.3573C22.5922 36.5453 22.0996 35.953 23.0832 35.7841Z" fill="white"/>
<path d="M20.9457 3.77787C25.5665 2.33276 30.5066 2.25452 35.1708 3.55256C40.5423 5.04744 45.2634 8.28785 48.5895 12.7628L48.8059 13.0539L50.0098 12.1591L48.8059 13.0539C52.466 17.9782 54.2792 24.0321 53.9286 30.1577L53.8817 30.9769C53.6185 35.5749 52.1303 40.0188 49.5714 43.848C46.2062 48.8839 41.145 52.5873 35.3288 54.2907C30.5588 55.6877 25.4643 55.6943 20.6971 54.2982L20.2755 55.7377L20.6971 54.2981L19.8165 54.0403C14.4858 52.4791 9.81131 49.2184 6.505 44.7549C3.25457 40.3669 1.50008 35.0505 1.50021 29.5897L1.50025 27.9064C1.50037 23.1769 2.8664 18.548 5.43417 14.5762C8.54837 9.75914 13.2508 6.18439 18.7253 4.47228L20.9457 3.77787Z" stroke="#ECEBF0" stroke-width="3"/>
</svg>
