<svg width="36" height="36" viewBox="0 0 36 36" fill="none" xmlns="http://www.w3.org/2000/svg">
<path fill-rule="evenodd" clip-rule="evenodd" d="M31.6111 25.7778C31.6111 27.3249 30.9965 28.8086 29.9026 29.9026C28.8086 30.9965 27.3249 31.6111 25.7778 31.6111H10.2222C8.67513 31.6111 7.19139 30.9965 6.09743 29.9026C5.00347 28.8086 4.38889 27.3249 4.38889 25.7778V10.2222C4.38889 8.67513 5.00347 7.19139 6.09743 6.09743C7.19139 5.00347 8.67513 4.38889 10.2222 4.38889H25.7778C27.3249 4.38889 28.8086 5.00347 29.9026 6.09743C30.9965 7.19139 31.6111 8.67513 31.6111 10.2222V25.7778ZM13.8589 11.8025C15.0847 10.9834 16.5258 10.5463 18 10.5463C19.9768 10.5463 21.8727 11.3316 23.2706 12.7294C24.6684 14.1273 25.4537 16.0232 25.4537 18C25.4537 19.4742 25.0166 20.9153 24.1975 22.1411C23.3785 23.3668 22.2144 24.3222 20.8524 24.8863C19.4904 25.4505 17.9917 25.5981 16.5459 25.3105C15.1 25.0229 13.7719 24.313 12.7294 23.2706C11.687 22.2281 10.9771 20.9 10.6895 19.4541C10.4019 18.0083 10.5495 16.5096 11.1137 15.1476C11.6778 13.7856 12.6332 12.6215 13.8589 11.8025ZM28.5816 11.0144C28.8665 10.5881 29.0185 10.0868 29.0185 9.57407C29.0185 8.88648 28.7454 8.22704 28.2592 7.74083C27.773 7.25463 27.1135 6.98148 26.4259 6.98148C25.9132 6.98148 25.4119 7.13353 24.9856 7.41841C24.5592 7.70329 24.2269 8.1082 24.0307 8.58193C23.8345 9.05567 23.7831 9.57695 23.8831 10.0799C23.9832 10.5828 24.2301 11.0447 24.5927 11.4073C24.9553 11.7699 25.4172 12.0168 25.9201 12.1169C26.423 12.2169 26.9443 12.1655 27.4181 11.9693C27.8918 11.7731 28.2967 11.4408 28.5816 11.0144Z" fill="white"/>
<path fill-rule="evenodd" clip-rule="evenodd" d="M25.7778 0.5H10.2222C7.64373 0.5 5.17084 1.5243 3.34757 3.34757C1.5243 5.17084 0.5 7.64373 0.5 10.2222V25.7778C0.5 28.3563 1.5243 30.8292 3.34757 32.6524C5.17084 34.4757 7.64373 35.5 10.2222 35.5H25.7778C28.3563 35.5 30.8292 34.4757 32.6524 32.6524C34.4757 30.8292 35.5 28.3563 35.5 25.7778V10.2222C35.5 7.64373 34.4757 5.17084 32.6524 3.34757C30.8292 1.5243 28.3563 0.5 25.7778 0.5ZM31.6111 25.7778C31.6111 27.3249 30.9965 28.8086 29.9026 29.9026C28.8086 30.9965 27.3249 31.6111 25.7778 31.6111H10.2222C8.67513 31.6111 7.19139 30.9965 6.09743 29.9026C5.00347 28.8086 4.38889 27.3249 4.38889 25.7778V10.2222C4.38889 8.67513 5.00347 7.19139 6.09743 6.09743C7.19139 5.00347 8.67513 4.38889 10.2222 4.38889H25.7778C27.3249 4.38889 28.8086 5.00347 29.9026 6.09743C30.9965 7.19139 31.6111 8.67513 31.6111 10.2222V25.7778Z" fill="white"/>
<path d="M18 21.5648C17.2949 21.5648 16.6057 21.3557 16.0195 20.964C15.4333 20.5723 14.9764 20.0156 14.7065 19.3642C14.4367 18.7128 14.3661 17.996 14.5037 17.3045C14.6412 16.613 14.9807 15.9778 15.4793 15.4793C15.9778 14.9807 16.613 14.6412 17.3045 14.5037C17.996 14.3661 18.7128 14.4367 19.3642 14.7065C20.0156 14.9764 20.5723 15.4333 20.964 16.0195C21.3557 16.6057 21.5648 17.2949 21.5648 18C21.5606 18.9441 21.1836 19.8484 20.516 20.516C19.8484 21.1836 18.9441 21.5606 18 21.5648Z" fill="white"/>
</svg>
