<svg width="36" height="36" viewBox="0 0 36 36" fill="none" xmlns="http://www.w3.org/2000/svg">
<path d="M18 0.5C8.3349 0.5 0.5 8.3349 0.5 18C0.5 27.6651 8.3349 35.5 18 35.5C27.6651 35.5 35.5 27.6651 35.5 18C35.5 8.3349 27.6651 0.5 18 0.5ZM24.7302 20.244C24.7302 20.244 26.2779 21.7716 26.6589 22.4807C26.6698 22.4953 26.6753 22.5099 26.6789 22.5172C26.8339 22.7779 26.8703 22.9802 26.7938 23.1315C26.6661 23.3831 26.2286 23.507 26.0792 23.518H23.3448C23.1552 23.518 22.7578 23.4688 22.2766 23.137C21.9065 22.8781 21.5419 22.4534 21.1865 22.0396C20.656 21.4234 20.1966 20.8911 19.7336 20.8911C19.6748 20.891 19.6163 20.9003 19.5604 20.9185C19.2104 21.0315 18.762 21.531 18.762 22.8617C18.762 23.2773 18.4339 23.5161 18.2023 23.5161H16.95C16.5234 23.5161 14.3013 23.3667 12.3326 21.2904C9.92266 18.7474 7.75339 13.6469 7.73516 13.5995C7.59844 13.2695 7.88099 13.0927 8.18906 13.0927H10.9508C11.319 13.0927 11.4393 13.3169 11.5232 13.5156C11.6216 13.7471 11.9826 14.6677 12.575 15.7031C13.5357 17.3911 14.1245 18.0766 14.5966 18.0766C14.6851 18.0755 14.7721 18.053 14.85 18.0109C15.4661 17.6682 15.3513 15.4716 15.324 15.0159C15.324 14.9302 15.3221 14.0333 15.0068 13.6031C14.7807 13.2914 14.3961 13.1729 14.1628 13.1292C14.2572 12.9988 14.3816 12.8932 14.5255 12.8211C14.9484 12.6096 15.7104 12.5786 16.4669 12.5786H16.888C17.7083 12.5896 17.9198 12.6424 18.2169 12.7172C18.8185 12.8612 18.8313 13.2495 18.7784 14.5784C18.762 14.9557 18.7456 15.3823 18.7456 15.8854C18.7456 15.9948 18.7401 16.1115 18.7401 16.2354C18.7219 16.9117 18.7 17.6792 19.1776 17.9945C19.2399 18.0336 19.3119 18.0544 19.3854 18.0547C19.5513 18.0547 20.0508 18.0547 21.4034 15.7341C21.8205 14.9872 22.183 14.211 22.488 13.4117C22.5154 13.3643 22.5956 13.2185 22.6904 13.162C22.7603 13.1263 22.8379 13.1082 22.9164 13.1091H26.163C26.5167 13.1091 26.7591 13.162 26.8047 13.2987C26.8849 13.5156 26.7901 14.1773 25.3081 16.1844L24.6464 17.0576C23.3029 18.8185 23.3029 18.9078 24.7302 20.244Z" fill="white"/>
</svg>
